<svg width="640" height="360" viewBox="0 0 640 360" fill="none" xmlns="http://www.w3.org/2000/svg">
  <rect width="640" height="360" rx="24" fill="#18181B"/>
  <!-- Panel -->
  <rect x="60" y="44" width="520" height="272" rx="16" fill="#27272A"/>
  <!-- Goal row 1 -->
  <rect x="92" y="74" width="148" height="11" rx="5.5" fill="#3F3F46"/>
  <rect x="92" y="96" width="456" height="10" rx="5" fill="#3F3F46"/>
  <rect x="92" y="96" width="290" height="10" rx="5" fill="#F59E0B"/>
  <rect x="92" y="96" width="290" height="10" rx="5" fill="url(#g1)"/>
  <rect x="498" y="90" width="50" height="22" rx="5" fill="#292112"/>
  <rect x="504" y="94" width="38" height="14" rx="4" fill="#F59E0B" fill-opacity="0.25"/>
  <!-- Goal row 2 -->
  <rect x="92" y="126" width="120" height="11" rx="5.5" fill="#3F3F46"/>
  <rect x="92" y="148" width="456" height="10" rx="5" fill="#3F3F46"/>
  <rect x="92" y="148" width="173" height="10" rx="5" fill="#22C55E"/>
  <rect x="498" y="142" width="50" height="22" rx="5" fill="#0D2318"/>
  <rect x="504" y="146" width="38" height="14" rx="4" fill="#22C55E" fill-opacity="0.25"/>
  <!-- Goal row 3 -->
  <rect x="92" y="178" width="178" height="11" rx="5.5" fill="#3F3F46"/>
  <rect x="92" y="200" width="456" height="10" rx="5" fill="#3F3F46"/>
  <rect x="92" y="200" width="410" height="10" rx="5" fill="#F97316"/>
  <rect x="498" y="194" width="50" height="22" rx="5" fill="#1C1107"/>
  <rect x="504" y="198" width="38" height="14" rx="4" fill="#F97316" fill-opacity="0.25"/>
  <!-- Goal row 4 -->
  <rect x="92" y="230" width="96" height="11" rx="5.5" fill="#3F3F46"/>
  <rect x="92" y="252" width="456" height="10" rx="5" fill="#3F3F46"/>
  <rect x="92" y="252" width="456" height="10" rx="5" fill="#A78BFA"/>
  <rect x="498" y="246" width="50" height="22" rx="5" fill="#120E1F"/>
  <rect x="504" y="250" width="38" height="14" rx="4" fill="#A78BFA" fill-opacity="0.25"/>
  <!-- Check mark on row 4 (complete) -->
  <circle cx="78" cy="257" r="8" fill="#A78BFA" fill-opacity="0.2" stroke="#A78BFA" stroke-width="1.5" stroke-opacity="0.5"/>
  <path d="M74.5 257L77 259.5L81.5 255" stroke="#A78BFA" stroke-width="1.5" stroke-linecap="round" stroke-linejoin="round"/>
  <defs>
    <linearGradient id="g1" x1="92" y1="0" x2="382" y2="0" gradientUnits="userSpaceOnUse">
      <stop stop-color="#F59E0B"/>
      <stop offset="1" stop-color="#FCD34D"/>
    </linearGradient>
  </defs>
</svg>
